<svg width="68" height="68" viewBox="0 0 68 68" fill="none" xmlns="http://www.w3.org/2000/svg">
<circle cx="34.1489" cy="34" r="33.8511" fill="black"/>
<g clip-path="url(#clip0_826_1030)">
<path fill-rule="evenodd" clip-rule="evenodd" d="M46.0726 27.9728C44.4599 26.3586 43.0548 24.798 40.0888 24.6356C37.695 24.5283 36.6026 26.0351 34.3645 26.0888C32.2834 26.1424 32.439 24.4209 28.1198 24.9053C24.3727 25.3346 21.0941 29.2099 21.3549 34.6457C21.6158 40.5122 25.5704 48.6383 29.2641 48.6383C31.8655 48.5847 32.4909 47.2924 34.6239 47.2924C37.2771 47.2924 37.9026 48.9066 39.9836 48.5832C43.5736 48.0451 46.9561 42.1786 46.9561 40.2961C44.9788 39.2199 43.0015 37.3896 42.7406 34.3222C42.5331 31.2548 44.3533 29.3172 46.0712 27.9713L46.0726 27.9728Z" fill="white"/>
<path fill-rule="evenodd" clip-rule="evenodd" d="M33.6366 25.0663C33.3757 22.9141 34.7809 18.231 39.7256 17.5319C40.2977 21.1374 37.4356 25.2809 33.6366 25.0663Z" fill="white"/>
</g>
<defs>
<clipPath id="clip0_826_1030">
<rect width="25.617" height="31.1064" fill="white" transform="translate(21.3405 17.5319)"/>
</clipPath>
</defs>
</svg>
