<svg width="68" height="68" viewBox="0 0 68 68" fill="none" xmlns="http://www.w3.org/2000/svg">
<circle cx="33.8511" cy="34" r="33.8511" fill="#F2F2F2"/>
<g clip-path="url(#clip0_826_1023)">
<path fill-rule="evenodd" clip-rule="evenodd" d="M49.4043 34.3524C49.4043 33.2485 49.3055 32.1902 49.1251 31.1709H34.6157V37.187H42.9046C42.5481 39.1302 41.4612 40.7784 39.8309 41.8802V45.7817H44.8099C47.7225 43.0751 49.4022 39.0868 49.4022 34.3503L49.4043 34.3524Z" fill="#4377BC"/>
<path fill-rule="evenodd" clip-rule="evenodd" d="M34.6157 49.5532C38.7741 49.5532 42.2624 48.1609 44.8098 45.7861L39.8309 41.8845C38.4519 42.8171 36.6863 43.3701 34.6157 43.3701C30.6033 43.3701 27.2074 40.6331 25.996 36.9571H20.8517V40.9866C23.3863 46.0702 28.595 49.5554 34.6179 49.5554L34.6157 49.5532Z" fill="#36A052"/>
<path fill-rule="evenodd" clip-rule="evenodd" d="M25.9981 36.9549C25.691 36.0224 25.5148 35.0247 25.5148 33.9989C25.5148 32.9731 25.6888 31.9776 25.9981 31.0429V27.0134H20.8516C19.8077 29.1149 19.2128 31.4897 19.2128 33.9989C19.2128 36.5082 19.8077 38.8829 20.8516 40.9845L25.9981 36.9549Z" fill="#EFB619"/>
<path fill-rule="evenodd" clip-rule="evenodd" d="M34.6157 24.6321C36.8775 24.6321 38.9073 25.4172 40.5032 26.957L44.9215 22.4959C42.2559 19.9888 38.7677 18.4468 34.6157 18.4468C28.595 18.4468 23.3863 21.932 20.8517 27.0155L25.9982 31.0451C27.2096 27.369 30.6055 24.6321 34.6179 24.6321H34.6157Z" fill="#DA4234"/>
</g>
<defs>
<clipPath id="clip0_826_1023">
<rect width="30.1915" height="31.1064" fill="white" transform="translate(19.2128 18.4468)"/>
</clipPath>
</defs>
</svg>
