<svg width="68" height="68" viewBox="0 0 68 68" fill="none" xmlns="http://www.w3.org/2000/svg">
<circle cx="34" cy="34" r="33.8511" fill="#FAE100"/>
<path d="M33.938 17.5319C23.3626 17.5319 14.7872 24.3082 14.7872 32.6721C14.7872 38.115 18.4203 42.8833 23.8713 45.5526C23.4697 47.0465 22.4202 50.9688 22.2114 51.8068C21.9517 52.8482 22.5916 52.8349 23.0119 52.5564C23.3412 52.3369 28.2594 48.9929 30.3798 47.5499C31.5311 47.7212 32.7198 47.8122 33.9353 47.8122C44.5107 47.8122 53.0861 41.036 53.0861 32.6748C53.0861 24.3135 44.5133 17.5346 33.9353 17.5346" fill="#371C1D"/>
<path d="M20.5782 29.885H22.5487C22.5487 29.885 22.5621 35.2985 22.5487 36.5595C22.5514 37.4805 24.5995 37.4939 24.5969 36.5729L24.6049 29.9546C24.6049 29.9546 25.2662 29.96 26.5673 29.96C27.7936 29.96 27.7936 28.0323 26.5673 28.0323C25.1859 28.0323 20.5729 27.9948 20.5729 27.9948C19.4163 27.9948 19.4189 29.885 20.5729 29.885" fill="#F8E049"/>
<mask id="mask0_826_1035" style="mask-type:luminance" maskUnits="userSpaceOnUse" x="19" y="27" width="9" height="11">
<path d="M20.5782 29.885H22.5487C22.5487 29.885 22.5621 35.2985 22.5487 36.5595C22.5514 37.4805 24.5995 37.4939 24.5969 36.5729L24.6049 29.9546C24.6049 29.9546 25.2662 29.96 26.5673 29.96C27.7936 29.96 27.7936 28.0323 26.5673 28.0323C25.1859 28.0323 20.5729 27.9948 20.5729 27.9948C19.4163 27.9948 19.4189 29.885 20.5729 29.885" fill="white"/>
</mask>
<g mask="url(#mask0_826_1035)">
<path d="M27.7962 27.9949H19.4189V37.4939H27.7962V27.9949Z" fill="#F8E049"/>
</g>
<path d="M30.013 30.2331L31.1107 33.6708H28.8242L30.013 30.2331ZM28.7841 28.6241C28.2995 29.6923 26.5459 34.7364 25.9649 36.075C25.5445 37.0415 27.3571 37.8313 27.7774 36.8648L28.171 35.486H31.7773C31.7773 35.486 31.6542 35.5422 32.1334 36.8059C32.5216 37.8286 34.393 37.1192 34.0048 36.0964C33.4506 34.6346 31.5363 29.371 31.1856 28.6268C31.025 28.2814 30.4467 28.0351 29.8871 28.0351C29.424 28.0351 28.9715 28.2037 28.7814 28.6268" fill="#F8E049"/>
<mask id="mask1_826_1035" style="mask-type:luminance" maskUnits="userSpaceOnUse" x="25" y="28" width="10" height="10">
<path d="M30.013 30.2331L31.1107 33.6708H28.8242L30.013 30.2331ZM28.7841 28.6241C28.2995 29.6923 26.5459 34.7364 25.9649 36.075C25.5445 37.0415 27.3571 37.8313 27.7774 36.8648L28.171 35.486H31.7773C31.7773 35.486 31.6542 35.5422 32.1334 36.8059C32.5216 37.8286 34.393 37.1192 34.0048 36.0964C33.4506 34.6346 31.5363 29.371 31.1856 28.6268C31.025 28.2814 30.4467 28.0351 29.8871 28.0351C29.424 28.0351 28.9715 28.2037 28.7814 28.6268" fill="white"/>
</mask>
<g mask="url(#mask1_826_1035)">
<path d="M34.3956 28.0322H25.5444V37.8312H34.3956V28.0322Z" fill="#F8E049"/>
</g>
<path d="M34.6984 28.94C34.701 30.6535 34.7091 36.1794 34.7091 36.1794C34.7091 36.1794 34.5511 37.2771 35.4908 37.2771C36.4306 37.2771 38.5215 37.2664 39.4479 37.2664C40.3742 37.2664 40.3689 35.2959 39.4425 35.2959C38.5162 35.2959 36.8241 35.2852 36.8241 35.2852C36.8241 35.2852 36.8322 30.1742 36.8295 28.9346C36.8295 28.3349 36.2967 28.0351 35.7639 28.0351C35.2311 28.0351 34.6957 28.3376 34.6957 28.94" fill="#F8E049"/>
<mask id="mask2_826_1035" style="mask-type:luminance" maskUnits="userSpaceOnUse" x="34" y="28" width="7" height="10">
<path d="M34.6984 28.94C34.701 30.6535 34.7091 36.1794 34.7091 36.1794C34.7091 36.1794 34.5511 37.2771 35.4908 37.2771C36.4306 37.2771 38.5215 37.2664 39.4479 37.2664C40.3742 37.2664 40.3689 35.2959 39.4425 35.2959C38.5162 35.2959 36.8241 35.2852 36.8241 35.2852C36.8241 35.2852 36.8322 30.1742 36.8295 28.9346C36.8295 28.3349 36.2967 28.0351 35.7639 28.0351C35.2311 28.0351 34.6957 28.3376 34.6957 28.94" fill="white"/>
</mask>
<g mask="url(#mask2_826_1035)">
<path d="M40.3742 28.035H34.5483V37.2771H40.3742V28.035Z" fill="#F8E049"/>
</g>
<path d="M40.6205 28.6669C40.6419 29.4192 40.5964 36.2169 40.5964 36.7202C40.5964 37.5154 42.6205 37.5127 42.6205 36.7202C42.6205 35.7966 42.6205 34.0456 42.6205 34.0456L43.2148 33.5691L45.8118 37.1138C46.3366 37.8072 47.9912 36.5542 47.4664 35.8608L44.7061 32.225C44.7061 32.225 46.5802 30.1983 47.3165 29.4647C47.7475 29.0364 46.4142 27.6924 45.9832 28.1234C45.5655 28.5384 42.6312 31.4754 42.6312 31.4754C42.6312 31.4754 42.658 29.6307 42.6312 28.6107C42.6205 28.2225 42.1466 28.0351 41.6593 28.0351C41.1399 28.0351 40.6071 28.2493 40.6179 28.6642" fill="#F8E049"/>
<mask id="mask3_826_1035" style="mask-type:luminance" maskUnits="userSpaceOnUse" x="40" y="28" width="8" height="10">
<path d="M40.6205 28.6669C40.6419 29.4192 40.5964 36.2169 40.5964 36.7202C40.5964 37.5154 42.6205 37.5127 42.6205 36.7202C42.6205 35.7966 42.6205 34.0456 42.6205 34.0456L43.2148 33.5691L45.8118 37.1138C46.3366 37.8072 47.9912 36.5542 47.4664 35.8608L44.7061 32.225C44.7061 32.225 46.5802 30.1983 47.3165 29.4647C47.7475 29.0364 46.4142 27.6924 45.9832 28.1234C45.5655 28.5384 42.6312 31.4754 42.6312 31.4754C42.6312 31.4754 42.658 29.6307 42.6312 28.6107C42.6205 28.2225 42.1466 28.0351 41.6593 28.0351C41.1399 28.0351 40.6071 28.2493 40.6179 28.6642" fill="white"/>
</mask>
<g mask="url(#mask3_826_1035)">
<path d="M47.9911 27.6976H40.5964V37.8071H47.9911V27.6976Z" fill="#F8E049"/>
</g>
</svg>
