<svg width="179" height="34" viewBox="0 0 179 34" fill="none" xmlns="http://www.w3.org/2000/svg">
<path d="M8.2647 0.820012C9.66421 0.820012 10.8651 0.990236 11.8675 1.33539C12.8699 1.67581 13.6973 2.18171 14.345 2.83892C14.9928 3.50085 15.4892 4.3188 15.8344 5.29751C16.1748 6.27623 16.3876 7.38734 16.4632 8.63082C16.4632 8.85777 16.4679 9.4015 16.4821 10.2526C16.4963 11.1036 16.501 12.1154 16.501 13.2833C16.501 14.4511 16.5058 15.6993 16.5199 17.0184C16.5341 18.3376 16.5341 19.5858 16.5199 20.7536C16.5058 21.9215 16.4963 22.9333 16.4821 23.7843C16.4679 24.6354 16.4632 25.1649 16.4632 25.3682C16.4112 27.9356 15.754 29.8552 14.4821 31.1223C13.2103 32.3942 11.1394 33.0278 8.26942 33.0278C6.79426 33.0278 5.5555 32.8623 4.55315 32.5313C3.55079 32.2003 2.72811 31.7133 2.09454 31.0656C1.46098 30.4178 0.98344 29.6188 0.666659 28.6637C0.349877 27.7134 0.151297 26.6117 0.0756475 25.3682C0.0520071 25.1413 0.037822 24.5976 0.037822 23.7465C0.037822 22.8955 0.033097 21.8837 0.0189128 20.7158C0.00472852 19.548 0 18.3045 0 16.9806C0 15.6568 0.00472852 14.4133 0.0189128 13.2454C0.033097 12.0776 0.037822 11.0705 0.037822 10.2336C0.037822 9.39677 0.0520071 8.8625 0.0756475 8.63082C0.151297 7.35897 0.34042 6.24314 0.647746 5.27861C0.950343 4.31408 1.42315 3.50085 2.05672 2.83892C2.69028 2.17698 3.51297 1.67581 4.51532 1.33539C5.51768 0.990236 6.77062 0.820012 8.26942 0.820012H8.2647ZM10.2836 8.47952C10.2836 7.94525 10.2174 7.515 10.0945 7.18403C9.96681 6.85306 9.80132 6.6072 9.59802 6.44172C9.39471 6.27623 9.17249 6.16749 8.93135 6.11548C8.69022 6.06347 8.46801 6.03983 8.2647 6.03983C8.06139 6.03983 7.84389 6.07293 7.61695 6.13439C7.39 6.19586 7.17723 6.31878 6.98811 6.49845C6.79899 6.67812 6.63351 6.93816 6.49167 7.27858C6.34982 7.62373 6.26944 8.05872 6.2458 8.59299C6.2458 8.81994 6.24107 9.3684 6.22689 10.2336C6.2127 11.0989 6.20325 12.1154 6.18907 13.2833C6.17488 14.4511 6.17015 15.6993 6.17015 17.0184C6.17015 18.3376 6.17488 19.5858 6.18907 20.7536C6.20325 21.9215 6.20798 22.9333 6.20798 23.7843C6.20798 24.6354 6.22216 25.1649 6.2458 25.3682C6.2458 25.9545 6.30727 26.4037 6.43492 26.7205C6.56258 27.0373 6.71861 27.2879 6.91247 27.4628C7.10159 27.6425 7.31908 27.7465 7.56021 27.789C7.80134 27.8269 8.03775 27.8458 8.2647 27.8458C8.46801 27.8458 8.6855 27.8269 8.91245 27.789C9.13939 27.7512 9.35216 27.6425 9.54128 27.4628C9.7304 27.2831 9.89589 27.0373 10.0377 26.7205C10.1796 26.4037 10.2599 25.9545 10.2836 25.3682C10.2836 25.1413 10.2883 24.5928 10.3025 23.7276C10.3167 22.8624 10.3214 21.8411 10.3214 20.6591V13.1509C10.3214 11.9689 10.312 10.9523 10.3025 10.1013C10.2883 9.2502 10.2836 8.7112 10.2836 8.47952ZM23.8532 4.02094C23.8532 2.74908 24.1653 1.8791 24.7846 1.41102C25.4087 0.942943 26.1227 0.706543 26.9406 0.706543C27.3473 0.706543 27.735 0.758555 28.1038 0.857845C28.4725 0.961863 28.7941 1.1368 29.0777 1.39212C29.3567 1.64744 29.5836 1.98786 29.7633 2.42284C29.9383 2.8531 30.0281 3.38736 30.0281 4.02566V30.0585C30.0281 30.7205 29.9383 31.2642 29.7633 31.6992C29.5836 32.1294 29.3567 32.4746 29.0777 32.7299C28.7988 32.9852 28.4725 33.1601 28.1038 33.2642C27.735 33.3682 27.3473 33.4155 26.9406 33.4155C26.534 33.4155 26.1463 33.3635 25.7775 33.2642C25.4087 33.1649 25.0778 32.9852 24.7846 32.7299C24.4915 32.4746 24.2645 32.1341 24.0991 31.6992C23.9336 31.2689 23.8532 30.7205 23.8532 30.0585V4.02566V4.02094Z" fill="#FF8B00"/>
<path d="M55.3375 25.1791C55.3375 25.8647 55.6117 26.4321 56.1555 26.8765C56.6992 27.321 57.399 27.6756 58.25 27.9451C59.1011 28.2146 60.0609 28.4132 61.1294 28.555C62.198 28.6921 63.2618 28.8292 64.3303 28.9569C65.3232 29.0845 66.0561 29.3588 66.5431 29.7749C67.0301 30.1909 67.205 30.8859 67.0774 31.8505C67.0017 32.3564 66.8551 32.7583 66.6376 33.0514C66.4202 33.3446 66.1601 33.5668 65.8575 33.7181C65.5549 33.8694 65.2098 33.9592 64.8268 33.9828C64.4438 34.0065 64.0656 34.0065 63.6826 33.9828C62.614 33.9072 61.555 33.7843 60.5006 33.6188C59.4462 33.4533 58.4155 33.2358 57.4132 32.971C56.4108 32.7063 55.4557 32.3564 54.5527 31.9214C53.6496 31.4864 52.8411 30.9663 52.1319 30.3564C51.4227 30.9663 50.6189 31.4864 49.73 31.9214C48.8411 32.3516 47.8955 32.7015 46.8884 32.971C45.8861 33.2358 44.8553 33.4533 43.801 33.6188C42.7466 33.7843 41.6875 33.9025 40.619 33.9828C40.236 34.0065 39.8578 34.0065 39.4748 33.9828C39.0918 33.9592 38.7514 33.8694 38.4441 33.7181C38.1415 33.5668 37.8767 33.3446 37.6639 33.0514C37.4464 32.7583 37.2999 32.3611 37.2242 31.8505C37.0966 30.8859 37.2762 30.1909 37.7585 29.7749C38.2408 29.3588 38.9783 29.0845 39.9712 28.9569C41.0634 28.8292 42.1509 28.6921 43.2289 28.5361C44.3069 28.3848 45.2761 28.1673 46.1272 27.8883C46.9783 27.6094 47.6686 27.2548 48.2028 26.8198C48.7371 26.3848 49.0019 25.8269 49.0019 25.1413V25.1035C49.0019 24.2383 49.47 23.6662 50.4109 23.3872C50.0042 23.2595 49.6733 23.0184 49.418 22.6638C49.1626 22.3092 49.035 21.7891 49.035 21.1035V19.8837H38.0989C37.4653 19.8837 36.9547 19.827 36.5765 19.7135C36.1935 19.6 35.9004 19.4345 35.7018 19.217C35.4985 18.9995 35.3661 18.7537 35.2999 18.4747C35.2337 18.1958 35.2053 17.879 35.2053 17.5196C35.2053 17.2407 35.2384 16.9617 35.2999 16.6828C35.3613 16.4038 35.4985 16.1532 35.7018 15.9405C35.9051 15.723 36.1982 15.548 36.5765 15.4062C36.9594 15.2691 37.4653 15.1981 38.0989 15.1981H65.8102C66.4438 15.1981 66.9544 15.2691 67.3327 15.4062C67.7157 15.548 68.0041 15.723 68.2074 15.9405C68.4107 16.158 68.5431 16.4038 68.6093 16.6828C68.6755 16.9617 68.7038 17.2407 68.7038 17.5196C68.7038 17.8742 68.6707 18.1958 68.6093 18.4747C68.5478 18.7537 68.4107 19.0043 68.2074 19.217C68.0041 19.4345 67.7109 19.6 67.3327 19.7135C66.9497 19.827 66.4438 19.8837 65.8102 19.8837H55.2146V21.1035C55.2146 21.7655 55.0869 22.2714 54.8316 22.626C54.5763 22.9806 54.2453 23.2359 53.8387 23.3872C54.269 23.5149 54.6236 23.7182 54.9073 23.9971C55.1862 24.2761 55.3281 24.6449 55.3281 25.1035V25.1791H55.3375ZM37.4984 6.69233C37.4984 4.99021 38.1509 3.62852 39.4606 2.61198C40.7703 1.59544 42.6946 1.08954 45.2336 1.08954H58.6519C61.1909 1.08954 63.1152 1.59544 64.4249 2.61198C65.7346 3.62852 66.3871 4.99021 66.3871 6.69233V8.25732C66.3871 9.98307 65.8008 11.288 64.6329 12.1627C63.4651 13.0374 61.5313 13.4771 58.841 13.4771H45.0823C42.3873 13.4771 40.4535 13.0374 39.2715 12.1627C38.0895 11.2833 37.4984 9.98307 37.4984 8.25732V6.69233ZM43.6733 7.64739C43.6733 8.23368 44.0421 8.59302 44.7797 8.73486C45.5173 8.87671 46.4298 8.9429 47.522 8.9429H56.3635C57.4557 8.9429 58.3682 8.87198 59.1058 8.73486C59.8434 8.59775 60.2122 8.23368 60.2122 7.64739V6.924C60.2122 6.6214 60.1176 6.38027 59.9285 6.2006C59.7394 6.02093 59.4651 5.88854 59.1105 5.79871C58.7559 5.70888 58.3351 5.66161 57.8529 5.64742C57.3706 5.63324 56.8363 5.62851 56.25 5.62851H47.6355C47.0492 5.62851 46.5149 5.63324 46.0326 5.64742C45.5504 5.66161 45.1296 5.70888 44.775 5.79871C44.4204 5.88854 44.1461 6.02093 43.957 6.2006C43.7679 6.38027 43.6733 6.6214 43.6733 6.924V7.64739Z" fill="#FF8B00"/>
<path d="M71.8811 3.9831C71.8811 3.60013 71.9236 3.25498 72.0135 2.93347C72.1033 2.61669 72.2735 2.33773 72.5288 2.0966C72.7841 1.85547 73.1387 1.66635 73.5974 1.52451C74.056 1.38739 74.6375 1.31647 75.3515 1.31647H86.8644C87.5736 1.31647 88.1599 1.38739 88.6185 1.52451C89.0771 1.66635 89.4317 1.85547 89.687 2.0966C89.9424 2.33773 90.1126 2.61669 90.2024 2.93347C90.2922 3.25025 90.3348 3.60013 90.3348 3.9831C90.3348 4.2857 90.2922 4.59776 90.2024 4.91927C90.1126 5.23605 89.9424 5.515 89.687 5.75614C89.4317 5.99727 89.0771 6.19585 88.6185 6.34715C88.1599 6.49845 87.5736 6.5741 86.8644 6.5741H84.5382C84.6375 7.31168 84.8313 7.94525 85.1103 8.47952C85.3892 9.01379 85.7249 9.49606 86.1173 9.92631C86.5098 10.3566 86.9731 10.7726 87.5074 11.1651C88.0417 11.5575 88.6374 11.9736 89.2993 12.4038C90.1126 12.9617 90.6516 13.5859 90.9211 14.2714C91.1859 14.957 91.0676 15.7088 90.557 16.522C90.2781 16.9523 89.9424 17.2785 89.5452 17.496C89.1528 17.7135 88.7272 17.8317 88.2686 17.86C87.9897 17.86 87.6965 17.827 87.3939 17.7655C87.0913 17.704 86.7982 17.5669 86.5145 17.3636C85.6256 16.7017 84.7556 15.9925 83.9046 15.2312C83.0535 14.47 82.2592 13.6426 81.5216 12.7537C80.8597 13.6662 80.1032 14.522 79.2522 15.3069C78.4011 16.0965 77.5028 16.7537 76.5666 17.288C76.2356 17.4913 75.8716 17.6567 75.4792 17.7844C75.0867 17.9121 74.6848 17.9877 74.2782 18.0113C73.848 18.035 73.4035 17.9593 72.9449 17.7844C72.4863 17.6047 72.108 17.2643 71.8007 16.7537C71.2948 15.9404 71.1671 15.1887 71.4177 14.5031C71.673 13.8175 72.2168 13.1934 73.0584 12.6355C73.796 12.1532 74.4484 11.7088 75.0205 11.3022C75.5926 10.8956 76.0796 10.4653 76.4862 10.0067C76.8929 9.54807 77.2238 9.04689 77.4791 8.50316C77.7297 7.95942 77.9094 7.31642 78.0134 6.57883H75.3468C74.6376 6.57883 74.0513 6.50318 73.5926 6.35188C73.134 6.20058 72.7794 6.002 72.5241 5.76087C72.2688 5.51974 72.0986 5.24079 72.0087 4.924C71.9189 4.60722 71.8763 4.29516 71.8763 3.98784L71.8811 3.9831ZM76.491 33.8646C75.7817 33.8646 75.2191 33.7937 74.8125 33.6566C74.4059 33.5147 74.0938 33.3256 73.8763 33.0845C73.6588 32.8434 73.5264 32.5644 73.4744 32.2476C73.4224 31.9308 73.3988 31.581 73.3988 31.198V22.6212C73.3988 21.3494 73.6777 20.4794 74.2357 20.0113C74.7936 19.5433 75.4792 19.3068 76.2924 19.3068C77.03 19.3068 77.7013 19.5102 78.3113 19.9168C78.9212 20.3234 79.2663 21.0846 79.342 22.2052H96.3016C96.3773 21.113 96.7225 20.3565 97.3324 19.9357C97.9423 19.5149 98.6279 19.3068 99.3891 19.3068C99.7957 19.3068 100.169 19.3589 100.514 19.4581C100.855 19.5574 101.162 19.7371 101.427 19.9924C101.692 20.2477 101.904 20.5882 102.056 21.0231C102.207 21.4534 102.283 21.9877 102.283 22.626V31.2027C102.283 31.5857 102.259 31.9308 102.207 32.2523C102.155 32.5691 102.023 32.8481 101.805 33.0892C101.588 33.3303 101.276 33.5195 100.869 33.6613C100.462 33.7984 99.9044 33.8694 99.1905 33.8694H76.472L76.491 33.8646ZM96.3111 27.0798H79.3893V28.9852H96.3111V27.0798ZM96.0842 4.02094C96.0842 2.74908 96.3962 1.8791 97.0203 1.41102C97.6444 0.942943 98.3584 0.706543 99.1716 0.706543C99.5782 0.706543 99.9659 0.758555 100.335 0.857845C100.703 0.961863 101.025 1.1368 101.309 1.39212C101.588 1.64744 101.815 1.98786 101.994 2.42284C102.174 2.85783 102.259 3.38736 102.259 4.02566V14.9286C102.259 15.5906 102.169 16.1343 101.994 16.5693C101.819 17.0043 101.588 17.3447 101.309 17.6C101.03 17.8553 100.703 18.035 100.335 18.1343C99.9659 18.2336 99.5782 18.2856 99.1716 18.2856C98.765 18.2856 98.3773 18.2336 98.0085 18.1343C97.6397 18.035 97.3087 17.8553 97.0156 17.6C96.7224 17.3447 96.4955 17.0043 96.33 16.5693C96.1645 16.139 96.0842 15.5906 96.0842 14.9286V4.02566V4.02094Z" fill="#FF8B00"/>
<path d="M108.812 4.06346C108.812 2.89562 109.115 2.11549 109.725 1.71833C110.335 1.32117 111.186 1.12732 112.278 1.12732H121.729C122.439 1.12732 123.001 1.19824 123.408 1.33535C123.814 1.47247 124.127 1.66632 124.339 1.90745C124.557 2.14858 124.689 2.42753 124.741 2.74431C124.793 3.0611 124.817 3.41098 124.817 3.79395V14.1626C124.817 14.7962 124.732 15.3258 124.571 15.7466C124.405 16.1674 124.169 16.5031 123.866 16.7584C123.564 17.0137 123.205 17.1981 122.798 17.3116C122.391 17.425 121.947 17.4818 121.465 17.4818H111.9C111.19 17.4818 110.628 17.4108 110.221 17.2737C109.815 17.1366 109.503 16.9428 109.285 16.7016C109.068 16.4605 108.935 16.1815 108.883 15.8648C108.831 15.548 108.807 15.1981 108.807 14.8151V4.06819L108.812 4.06346ZM115.937 33.8693C114.741 33.8693 113.725 33.6802 112.888 33.2972C112.051 32.9142 111.375 32.4036 110.869 31.7511C110.358 31.1034 109.99 30.3658 109.763 29.5384C109.536 28.711 109.417 27.8552 109.417 26.9663C109.417 26.0774 109.517 25.2122 109.72 24.3753C109.923 23.5384 110.273 22.8009 110.77 22.1626C111.266 21.529 111.937 21.0184 112.789 20.6401C113.64 20.2619 114.713 20.068 116.008 20.068H132.32C133.616 20.068 134.689 20.2572 135.54 20.6401C136.391 21.0231 137.063 21.529 137.559 22.1626C138.055 22.7961 138.405 23.5337 138.609 24.3753C138.812 25.2122 138.911 26.0774 138.911 26.9663C138.911 27.8552 138.798 28.711 138.566 29.5384C138.339 30.3658 137.961 31.1034 137.441 31.7511C136.921 32.3989 136.245 32.9142 135.422 33.2972C134.594 33.6802 133.587 33.8693 132.391 33.8693H115.923H115.937ZM114.987 6.19583V12.4085H118.647V6.19583H114.987ZM130.689 28.6826C131.427 28.6826 131.961 28.5691 132.292 28.3375C132.623 28.1105 132.788 27.6519 132.788 26.9663C132.788 26.2807 132.623 25.7843 132.292 25.5573C131.961 25.3304 131.427 25.2122 130.689 25.2122H117.654C116.916 25.2122 116.382 25.3257 116.051 25.5573C115.72 25.7843 115.554 26.2571 115.554 26.9663C115.554 27.6755 115.72 28.1105 116.051 28.3375C116.382 28.5644 116.916 28.6826 117.654 28.6826H130.689ZM132.249 11.6473H129.2C128.491 11.6473 127.914 11.5764 127.483 11.4393C127.053 11.3022 126.713 11.1036 126.472 10.8483C126.23 10.5929 126.07 10.3093 125.994 9.99248C125.918 9.6757 125.881 9.32582 125.881 8.94285C125.881 8.64025 125.918 8.32819 125.994 8.00668C126.07 7.68517 126.23 7.40148 126.472 7.1509C126.713 6.89558 127.048 6.69227 127.483 6.54097C127.914 6.38967 128.486 6.31403 129.2 6.31403H132.249V4.02562C132.249 2.75377 132.561 1.8838 133.186 1.41572C133.81 0.947642 134.524 0.711243 135.342 0.711243C135.748 0.711243 136.136 0.763255 136.505 0.862545C136.873 0.966563 137.195 1.14149 137.479 1.39681C137.758 1.65212 137.985 1.99256 138.164 2.42754C138.339 2.8578 138.429 3.39206 138.429 4.03036V14.853C138.429 15.5149 138.339 16.0586 138.164 16.4936C137.985 16.9286 137.758 17.269 137.479 17.5243C137.2 17.7796 136.873 17.9546 136.505 18.0586C136.136 18.1579 135.748 18.2099 135.342 18.2099C134.935 18.2099 134.547 18.1579 134.178 18.0586C133.81 17.9593 133.479 17.7796 133.186 17.5243C132.892 17.269 132.665 16.9286 132.5 16.4936C132.334 16.0633 132.254 15.5149 132.254 14.853V11.652L132.249 11.6473Z" fill="#FF8B00"/>
<path d="M151.043 33.8693C149.847 33.8457 148.831 33.6235 147.994 33.2027C147.157 32.7819 146.481 32.2476 145.975 31.5998C145.469 30.9521 145.1 30.2098 144.868 29.3682C144.637 28.5266 144.528 27.6661 144.528 26.7772C144.528 25.8883 144.627 25.0183 144.831 24.1673C145.034 23.3162 145.384 22.5645 145.88 21.9167C146.377 21.269 147.048 20.7394 147.899 20.3328C148.75 19.9262 149.824 19.7087 151.119 19.6851H167.431C168.726 19.6851 169.8 19.8884 170.651 20.295C171.502 20.7016 172.173 21.2359 172.67 21.8978C173.166 22.5597 173.516 23.3162 173.719 24.1673C173.923 25.0183 174.022 25.8883 174.022 26.7772C174.022 27.6661 173.908 28.5313 173.681 29.3682C173.455 30.205 173.076 30.9521 172.556 31.5998C172.036 32.2476 171.36 32.7819 170.537 33.2027C169.715 33.6235 168.703 33.8457 167.507 33.8693H151.043ZM150.816 11.9168H157.526C158.235 11.9168 158.821 11.9877 159.28 12.1248C159.738 12.2667 160.093 12.4558 160.348 12.6969C160.604 12.9381 160.774 13.2123 160.864 13.5149C160.953 13.8175 160.996 14.1248 160.996 14.4274C160.996 14.8104 160.953 15.1603 160.864 15.4771C160.774 15.7938 160.604 16.0728 160.348 16.3139C160.093 16.5551 159.738 16.7442 159.28 16.886C158.821 17.0279 158.235 17.0941 157.526 17.0941H147.729C147.02 17.0941 146.457 17.0231 146.051 16.886C145.644 16.7489 145.332 16.5551 145.119 16.3139C144.902 16.0728 144.769 15.7938 144.717 15.4771C144.665 15.1603 144.642 14.8104 144.642 14.4274V4.40388C144.642 3.13202 144.954 2.26205 145.578 1.79396C146.202 1.32588 146.916 1.08948 147.734 1.08948C148.14 1.08948 148.528 1.1415 148.897 1.24079C149.266 1.34008 149.587 1.51975 149.871 1.77506C150.15 2.03038 150.377 2.3708 150.556 2.80578C150.731 3.23604 150.821 3.77032 150.821 4.40861V11.9168H150.816ZM165.795 28.6873C166.533 28.6353 167.067 28.4793 167.398 28.2098C167.729 27.9403 167.894 27.4675 167.894 26.7819C167.894 26.0963 167.729 25.581 167.398 25.3162C167.067 25.0467 166.533 24.8907 165.795 24.8387H152.76C152.022 24.8907 151.488 25.0467 151.157 25.3162C150.826 25.581 150.66 26.0727 150.66 26.7819C150.66 27.4911 150.826 27.945 151.157 28.2098C151.488 28.4746 152.022 28.6353 152.76 28.6873H165.795ZM166.443 4.02562C166.443 2.75377 166.755 1.8838 167.379 1.41572C168.003 0.947642 168.717 0.711243 169.53 0.711243C170.291 0.711243 170.986 0.933465 171.606 1.3779C172.23 1.82235 172.566 2.63085 172.618 3.79868H175.02C175.729 3.79868 176.315 3.86487 176.774 3.9878C177.232 4.11546 177.587 4.2904 177.842 4.52208C178.098 4.75376 178.268 5.00907 178.358 5.30221C178.447 5.59535 178.49 5.89323 178.49 6.19583C178.49 6.5788 178.447 6.91922 178.358 7.22655C178.268 7.53387 178.098 7.79391 177.842 8.00668C177.587 8.22417 177.232 8.38965 176.774 8.50312C176.315 8.6166 175.733 8.67334 175.02 8.67334H172.618V10.8057H175.02C175.729 10.8057 176.315 10.8719 176.774 10.9948C177.232 11.1225 177.587 11.2974 177.842 11.5291C178.098 11.7608 178.268 12.0208 178.358 12.3092C178.447 12.6024 178.49 12.9002 178.49 13.2028C178.49 13.5858 178.447 13.9263 178.358 14.2336C178.268 14.5409 178.098 14.8009 177.842 15.0137C177.587 15.2312 177.232 15.3967 176.774 15.5102C176.315 15.6236 175.733 15.6804 175.02 15.6804H172.542C172.391 16.6449 172.027 17.3021 171.455 17.6425C170.882 17.9829 170.239 18.1579 169.53 18.1579C169.124 18.1579 168.736 18.1059 168.367 18.0066C167.998 17.9073 167.667 17.7276 167.374 17.4723C167.081 17.217 166.854 16.8766 166.689 16.4416C166.523 16.0113 166.443 15.4629 166.443 14.8009V4.01617V4.02562Z" fill="#FF8B00"/>
</svg>
