<svg width="16" height="16" viewBox="0 0 16 16" fill="none" xmlns="http://www.w3.org/2000/svg">
<path d="M3.86504 4.54483C3.60468 4.54483 3.39166 4.33181 3.39166 4.07145V2.29628C3.39166 2.03593 3.60468 1.82291 3.86504 1.82291C4.1254 1.82291 4.33842 2.03593 4.33842 2.29628V4.07145C4.33842 4.33181 4.1254 4.54483 3.86504 4.54483Z" fill="#4EB36A"/>
<path d="M11.9599 4.5448C11.6995 4.5448 11.4865 4.33178 11.4865 4.07142V2.29625C11.4865 2.0359 11.6995 1.82288 11.9599 1.82288C12.2202 1.82288 12.4333 2.0359 12.4333 2.29625V4.07142C12.4333 4.33178 12.2202 4.5448 11.9599 4.5448Z" fill="#4EB36A"/>
<path d="M2.76676 3.07257H13.0533C13.574 3.07257 14 3.49861 14 4.01933V6.31047H1.82001V4.01933C1.82001 3.49861 2.24605 3.07257 2.76676 3.07257Z" fill="#4EB36A"/>
<path d="M1.82001 7.01111H14V13.0703C14 13.5958 13.574 14.0171 13.0533 14.0171H2.76676C2.24131 14.0171 1.82001 13.5911 1.82001 13.0703V7.01111Z" fill="#4EB36A"/>
</svg>
