<svg width="16" height="16" viewBox="0 0 16 16" fill="none" xmlns="http://www.w3.org/2000/svg">
<path d="M8 2C4.68567 2 2 4.68567 2 8C2 11.3143 4.68567 14 8 14C11.3143 14 14 11.3143 14 8C14 4.68567 11.3143 2 8 2ZM11.5593 8.85978H10.5424L10.1032 10.7781H8.56394L8.00925 8.46687L7.44992 10.7781H5.91063L5.47149 8.85978H4.4453V7.44068H5.14792L4.72265 5.57781H6.38213L6.77504 8.02774L7.33898 5.57781H8.68875L9.24807 8.01387L9.64561 5.57781H11.3051L10.8798 7.44068H11.5732V8.85978H11.5593Z" fill="#4EB36A"/>
</svg>
