<svg width="32" height="32" viewBox="0 0 32 32" fill="none" xmlns="http://www.w3.org/2000/svg">
<path fill-rule="evenodd" clip-rule="evenodd" d="M15.4216 2.85562C15.7681 2.60363 16.2319 2.60363 16.5784 2.85562L27.5784 10.8556C27.8429 11.0479 28 11.3598 28 11.6923V25.178C28 27.4569 26.212 29.3333 23.9761 29.3333H8.02394C5.8001 29.3333 4 27.4694 4 25.178V11.6923C4 11.3598 4.15714 11.0479 4.42157 10.8556L15.4216 2.85562ZM6 12.2223V25.178C6 26.3503 6.91805 27.282 8.02394 27.282H23.9761C25.0868 27.282 26 26.3453 26 25.178V12.2223L16 4.94959L6 12.2223Z" fill="#D1D1D1"/>
<path d="M11.4584 21.1427C11.4584 20.4656 11.707 19.9256 12.2384 19.5227C12.5384 19.2999 12.8641 19.1027 13.1727 18.897C13.5412 18.657 13.8327 18.3484 14.0555 17.9627C14.2955 17.5513 14.5355 17.1484 14.8355 16.7799C15.5984 15.8284 16.987 15.7942 17.8098 16.6942C18.0755 16.9856 18.3155 17.3113 18.487 17.6627C18.8298 18.357 19.3612 18.8199 20.0127 19.197C20.5698 19.5141 21.0155 19.9342 21.2041 20.5856C21.5898 21.9827 20.4584 23.2599 19.027 23.0027C18.367 22.8827 17.6984 22.7456 17.0384 22.6256C16.2327 22.4799 15.4441 22.6684 14.6641 22.8227C14.2527 22.9084 13.8327 22.9856 13.4127 23.0284C12.2384 23.1484 11.4155 22.0599 11.4584 21.1513V21.1427Z" fill="#D1D1D1"/>
<path d="M19.5928 16.5142C19.6013 16.1199 19.7642 15.5971 20.2013 15.1942C20.7071 14.7228 21.4185 14.7399 21.9156 15.2199C22.6785 15.9571 22.6871 17.4056 21.9499 18.1599C21.4185 18.6999 20.6642 18.6999 20.1328 18.1513C19.7899 17.7999 19.5928 17.2685 19.5928 16.5142Z" fill="#D1D1D1"/>
<path d="M19.6357 14.2256C19.6357 14.8342 19.4814 15.3313 19.0785 15.7256C18.5642 16.2485 17.8528 16.2571 17.3214 15.7513C16.5242 14.9885 16.55 13.4542 17.3728 12.7256C17.8785 12.2713 18.5814 12.2971 19.07 12.7771C19.4814 13.1885 19.6528 13.7028 19.6357 14.2171V14.2256Z" fill="#D1D1D1"/>
<path d="M10.2414 16.7029C10.2243 16.1887 10.37 15.7258 10.7043 15.3401C11.2443 14.6972 12.0414 14.6801 12.6243 15.2887C13.2929 16.0001 13.3186 17.3544 12.6671 18.0915C12.0243 18.8115 11.0471 18.7258 10.5671 17.8601C10.3786 17.5172 10.3014 17.1144 10.1729 16.7372L10.25 16.7115L10.2414 16.7029Z" fill="#D1D1D1"/>
<path d="M15.9755 14.2514C15.9927 14.7314 15.8727 15.16 15.5898 15.5371C15.0155 16.3171 14.0812 16.3257 13.4898 15.5543C12.9498 14.8428 12.9498 13.66 13.5069 12.9571C14.0984 12.1943 15.0841 12.2286 15.6241 13.0343C15.8727 13.4028 16.0012 13.8143 15.9755 14.2514Z" fill="#D1D1D1"/>
</svg>
