<svg width="32" height="32" viewBox="0 0 32 32" fill="none" xmlns="http://www.w3.org/2000/svg">
<path fill-rule="evenodd" clip-rule="evenodd" d="M16.1733 4.71226C13.8084 4.71226 11.8912 6.62942 11.8912 8.99436C11.8912 11.3593 13.8084 13.2765 16.1733 13.2765C18.5383 13.2765 20.4554 11.3593 20.4554 8.99436C20.4554 6.62942 18.5383 4.71226 16.1733 4.71226ZM10.1611 8.99436C10.1611 5.67389 12.8528 2.98212 16.1733 2.98212C19.4938 2.98212 22.1856 5.67389 22.1856 8.99436C22.1856 12.3148 19.4938 15.0066 16.1733 15.0066C12.8528 15.0066 10.1611 12.3148 10.1611 8.99436Z" fill="#D1D1D1"/>
<path fill-rule="evenodd" clip-rule="evenodd" d="M16.1733 17.8528C11.2418 17.8528 7.41015 21.4255 7.41015 25.6384V28.0693C7.41015 28.547 7.02285 28.9343 6.54508 28.9343C6.06731 28.9343 5.68001 28.547 5.68001 28.0693V25.6384C5.68001 20.301 10.4645 16.1226 16.1733 16.1226C21.8822 16.1226 26.6666 20.301 26.6666 25.6384V28.0693C26.6666 28.547 26.2793 28.9343 25.8016 28.9343C25.3238 28.9343 24.9365 28.547 24.9365 28.0693V25.6384C24.9365 21.4255 21.1049 17.8528 16.1733 17.8528Z" fill="#D1D1D1"/>
</svg>
