<svg width="32" height="32" viewBox="0 0 32 32" fill="none" xmlns="http://www.w3.org/2000/svg">
<path fill-rule="evenodd" clip-rule="evenodd" d="M16.0979 6.49315C14.6008 6.49315 13.3871 7.70679 13.3871 9.2039C13.3871 10.701 14.6008 11.9147 16.0979 11.9147C17.595 11.9147 18.8086 10.701 18.8086 9.2039C18.8086 7.70679 17.595 6.49315 16.0979 6.49315ZM11.4577 9.2039C11.4577 6.64123 13.5352 4.56378 16.0979 4.56378C18.6605 4.56378 20.738 6.64123 20.738 9.2039C20.738 11.7666 18.6605 13.844 16.0979 13.844C13.5352 13.844 11.4577 11.7666 11.4577 9.2039Z" fill="#D1D1D1"/>
<path fill-rule="evenodd" clip-rule="evenodd" d="M24.6932 21.0983C23.1961 21.0983 21.9824 22.312 21.9824 23.8091C21.9824 25.3062 23.1961 26.5198 24.6932 26.5198C26.1903 26.5198 27.4039 25.3062 27.4039 23.8091C27.4039 22.312 26.1903 21.0983 24.6932 21.0983ZM20.0531 23.8091C20.0531 21.2464 22.1305 19.1689 24.6932 19.1689C27.2559 19.1689 29.3333 21.2464 29.3333 23.8091C29.3333 26.3717 27.2559 28.4492 24.6932 28.4492C22.1305 28.4492 20.0531 26.3717 20.0531 23.8091Z" fill="#D1D1D1"/>
<path fill-rule="evenodd" clip-rule="evenodd" d="M7.10692 21.0696C5.60981 21.0696 4.39616 22.2833 4.39616 23.7804C4.39616 25.2775 5.60981 26.4911 7.10692 26.4911C8.60403 26.4911 9.81768 25.2775 9.81768 23.7804C9.81768 22.2833 8.60403 21.0696 7.10692 21.0696ZM2.4668 23.7804C2.4668 21.2177 4.54425 19.1403 7.10692 19.1403C9.66959 19.1403 11.747 21.2177 11.747 23.7804C11.747 26.343 9.66959 28.4205 7.10692 28.4205C4.54425 28.4205 2.4668 26.343 2.4668 23.7804Z" fill="#D1D1D1"/>
<path fill-rule="evenodd" clip-rule="evenodd" d="M18.7564 11.5964L23.9368 20.568L22.2659 21.5327L17.0856 12.5612L18.7564 11.5964Z" fill="#D1D1D1"/>
<path fill-rule="evenodd" clip-rule="evenodd" d="M21.3937 25.4972H10.3191V23.5679H21.3937V25.4972Z" fill="#D1D1D1"/>
<path fill-rule="evenodd" clip-rule="evenodd" d="M8.25841 20.5683L13.4195 11.616L15.0909 12.5797L9.9299 21.5319L8.25841 20.5683Z" fill="#D1D1D1"/>
</svg>
