<svg width="16" height="16" viewBox="0 0 16 16" fill="none" xmlns="http://www.w3.org/2000/svg">
<path d="M8.00002 8.00001C8.36669 8.00001 8.68069 7.86934 8.94202 7.60801C9.20335 7.34668 9.3338 7.0329 9.33335 6.66668C9.33335 6.30001 9.20269 5.98601 8.94135 5.72468C8.68002 5.46334 8.36624 5.3329 8.00002 5.33334C7.63335 5.33334 7.31935 5.46401 7.05802 5.72534C6.79669 5.98668 6.66624 6.30045 6.66669 6.66668C6.66669 7.03334 6.79735 7.34734 7.05869 7.60868C7.32002 7.87001 7.6338 8.00045 8.00002 8.00001ZM8.00002 14.6667C6.21113 13.1445 4.87513 11.7307 3.99202 10.4253C3.10891 9.12001 2.66713 7.91157 2.66669 6.80001C2.66669 5.13334 3.20291 3.80557 4.27535 2.81668C5.3478 1.82779 6.58935 1.33334 8.00002 1.33334C9.41113 1.33334 10.6529 1.82779 11.7254 2.81668C12.7978 3.80557 13.3338 5.13334 13.3334 6.80001C13.3334 7.91112 12.8916 9.11957 12.008 10.4253C11.1245 11.7311 9.78846 13.1449 8.00002 14.6667Z" fill="#4EB36A"/>
</svg>
