<svg width="32" height="32" viewBox="0 0 32 32" fill="none" xmlns="http://www.w3.org/2000/svg">
<path fill-rule="evenodd" clip-rule="evenodd" d="M4 15.8187C4 9.29011 9.37891 4 16.0171 4C22.6553 4 28.0342 9.29011 28.0342 15.8187C28.0342 17.7739 27.5478 19.6187 26.6883 21.2477L29.2541 26.7783C29.3781 27.0456 29.3554 27.3565 29.1939 27.6036C29.0324 27.8506 28.7542 28 28.4555 28H28.4468C28.3052 28 28.1657 27.9663 28.0402 27.9018L23.0955 25.3605C21.1154 26.7891 18.6671 27.6374 16.0171 27.6374C9.37891 27.6374 4 22.3473 4 15.8187ZM16.0171 5.72662C10.3485 5.72662 5.7556 10.2437 5.7556 15.8187C5.7556 21.3937 10.3485 25.9108 16.0171 25.9108C18.459 25.9108 20.6969 25.0686 22.4514 23.6691C22.7234 23.4521 23.1006 23.4149 23.4109 23.5744L26.5979 25.2124L24.9094 21.5728C24.7925 21.3208 24.8056 21.0291 24.9446 20.7883C25.7938 19.3167 26.2786 17.6241 26.2786 15.8187C26.2786 10.2437 21.6857 5.72662 16.0171 5.72662Z" fill="#D1D1D1"/>
</svg>
