<svg width="24" height="24" viewBox="0 0 24 24" fill="none" xmlns="http://www.w3.org/2000/svg">
<path d="M17.95 6H7C5.89543 6 5 6.89543 5 8V15.48C5 16.5846 5.89543 17.48 7 17.48H17.95C19.0546 17.48 19.95 16.5846 19.95 15.48V8C19.95 6.89543 19.0546 6 17.95 6Z" stroke="black" stroke-linecap="round" stroke-linejoin="round"/>
<path d="M5.4502 13.19L10.3502 10.86L15.1602 13.77L19.9602 11.42" stroke="black" stroke-linecap="round" stroke-linejoin="round"/>
<path d="M16.3302 10.72C16.9763 10.72 17.5002 10.1962 17.5002 9.55C17.5002 8.90383 16.9763 8.38 16.3302 8.38C15.684 8.38 15.1602 8.90383 15.1602 9.55C15.1602 10.1962 15.684 10.72 16.3302 10.72Z" fill="black"/>
</svg>
