<svg width="175" height="225" viewBox="0 0 175 225" fill="none" xmlns="http://www.w3.org/2000/svg">
<path d="M102.338 183.146C102.338 183.146 99.3357 189.783 104.392 200.369C109.448 210.956 110.712 213.958 110.712 213.958C110.712 213.958 105.403 215.696 106.077 219.173C106.762 222.649 111.502 222.333 111.502 222.333C111.502 222.333 114.031 223.607 117.665 222.333C117.665 222.333 120.825 222.796 124.301 220.11C127.778 217.424 119.403 181.082 119.403 181.082L102.338 183.136V183.146Z" fill="#58493E"/>
<path d="M149.436 134.31C145.643 162.12 140.587 182.356 129.21 206.374C126.029 212.736 128.936 218.783 134.225 223.386C135.636 222.87 136.837 221.89 137.427 220.131C138.691 216.339 135.847 213.969 135.847 213.969C135.847 213.969 137.901 200.38 142.167 193.269C146.434 186.159 156.23 175.73 157.02 160.245C157.631 148.173 153.544 134.563 151.711 129.149C150.047 130.718 149.436 133.447 149.436 134.321V134.31Z" fill="#635246"/>
<path d="M68.7766 143.623C82.5446 141.042 96.302 130.539 100.452 116.676C101.896 116.15 103.455 115.602 105.193 115.033C119.256 110.451 131.739 113.453 131.739 113.453C131.739 113.453 145.643 97.494 149.278 90.0675C152.912 82.641 154.334 73.9504 143.273 63.0477C132.213 52.145 121.879 51.7763 121.879 28.1274C121.879 6.0586 142.346 -1.94726 155.672 0.391293C147.076 12.7161 142.957 28.4855 150.7 42.0323C156.546 52.2609 167.459 60.8145 174.17 70.8429C175.486 76.4259 175.339 82.8201 172.99 90.6995C168.091 107.133 150.868 126.726 150.868 126.726C150.868 126.726 151.205 127.6 151.722 129.138C150.057 130.708 149.446 133.436 149.446 134.31C145.654 162.12 140.598 182.356 129.221 206.374C126.04 212.736 128.947 218.783 134.235 223.386C130.622 224.724 125.587 222.975 125.587 222.975C121.952 225.187 120.056 223.765 120.056 223.765C120.056 223.765 116.97 223.808 115.632 221.395C114.052 216.497 121.636 213.653 121.636 213.653C121.636 213.653 118.16 203.382 116.264 195.798C114.368 188.213 117.37 182.683 117.37 182.683C108.364 187.581 102.517 184.895 94.4586 186.001C86.4001 187.107 78.3415 186.633 75.3393 190.741C77.7095 202.118 72.6531 214.127 72.6531 214.127C72.6531 214.127 73.2536 215.812 72.6531 219.183C71.2311 225.346 63.3305 223.744 63.3305 223.744C60.4863 225.788 58.5902 223.744 58.5902 223.744C58.5902 223.744 56.0726 223.218 54.798 220.605C53.0599 215.391 59.5383 214.285 59.5383 214.285C59.5383 214.285 59.8543 212.705 57.3261 205.594C54.798 198.484 55.272 189.477 55.272 189.477C51.5535 189.551 46.771 190.078 46.771 190.078C48.1931 194.66 47.6875 213.663 47.6875 213.663C47.6875 213.663 51.1637 218.088 47.6875 221.722C44.2113 225.356 39.1023 223.028 39.1023 223.028C36.0474 224.492 34.4146 222.986 34.4146 222.986C34.4146 222.986 30.3063 223.776 30.4328 218.246C30.5592 212.715 37.1535 213.137 37.1535 213.137C37.1535 213.137 37.3641 210.819 31.1491 201.128C24.934 191.436 24.5126 162.784 26.6194 149.922C27.1567 146.677 27.9994 143.791 28.958 141.273C41.8306 144.813 54.9981 146.635 68.8082 143.633L68.7766 143.623Z" fill="#6E5D4F"/>
<path d="M78.826 122.386C86.6633 123.05 90.2133 120.416 100.452 116.666C96.3019 130.529 82.5445 141.031 68.7765 143.612C54.9664 146.614 41.7989 144.792 28.9263 141.252C31.7705 133.826 35.647 129.749 35.647 129.749C35.647 129.749 69.872 121.628 78.8154 122.375L78.826 122.386Z" fill="#635246"/>
<path d="M162.551 28.9069C168.871 19.5843 173.927 12.9478 163.815 3.94124C161.813 2.16099 158.959 0.960109 155.672 0.380737C147.076 12.7056 142.957 28.475 150.7 42.0218C156.546 52.2503 167.459 60.8039 174.17 70.8323C172.737 64.7858 169.587 59.6768 165.563 54.6626C157.821 45.024 156.241 38.2295 162.561 28.9069H162.551Z" fill="#635246"/>
<path d="M43.2423 43.2858C35.4471 47.4994 35.6578 64.9332 35.6578 64.9332L50.7004 58.7919C49.4258 49.9749 46.5816 45.2241 44.4432 42.8118C44.0534 42.9171 43.6531 43.0646 43.2423 43.2858Z" fill="#DDB0B1"/>
<path d="M44.4434 42.8118C46.5818 45.2346 49.426 49.975 50.7006 58.7919L55.2513 56.938C55.2513 56.938 51.4696 40.9157 44.4434 42.8118Z" fill="#6E5D4F"/>
<path d="M101.854 68.6623C104.003 77.2581 90.9931 88.8666 90.9931 88.8666L85.3784 73.6239C92.7417 68.6097 98.1667 67.5036 101.39 67.4509C101.58 67.8091 101.738 68.1988 101.854 68.6518V68.6623Z" fill="#DDB0B1"/>
<path d="M101.39 67.4509C98.1559 67.5036 92.7414 68.6097 85.3781 73.6239L83.6821 69.01C83.6821 69.01 98.0505 60.9936 101.4 67.4509H101.39Z" fill="#6E5D4F"/>
<path d="M35.6579 121.069C35.6579 121.069 32.3397 126.284 35.6579 129.76C38.9761 133.236 67.576 134.216 78.3207 126.452C82.134 123.46 80.2168 122.017 79.2688 118.541" fill="#D05551"/>
<path d="M57.3894 140.999C57.3894 144.107 54.8402 146.635 51.7011 146.635C48.5619 146.635 46.0127 144.107 46.0127 140.999C46.0127 137.892 48.5619 135.364 51.7011 135.364C54.8402 135.364 57.3894 137.881 57.3894 140.999Z" fill="#F1AB42"/>
<path d="M55.5672 140.999C55.5672 144.107 53.0179 146.635 49.8788 146.635C46.7397 146.635 44.1904 144.107 44.1904 140.999C44.1904 137.892 46.7397 135.364 49.8788 135.364C53.0179 135.364 55.5672 137.881 55.5672 140.999Z" fill="#F4BC4E"/>
<path d="M51.933 127.516H49.0361V135.364H51.933V127.516Z" fill="#0A0703"/>
<path d="M88.9493 77.2581C87.5167 74.1189 85.2624 70.6111 81.7967 66.6714C67.4177 50.3963 41.346 57.5068 35.6471 64.9333C29.9587 72.3598 23.1643 79.1121 19.214 84.6424C15.2637 90.1728 13.8416 104.762 25.8504 117.245C28.4629 119.963 31.1807 121.986 33.8247 123.492C62.0348 124.208 87.6431 105.279 88.9388 77.2686L88.9493 77.2581Z" fill="#6E5D4F"/>
<path d="M88.9495 77.2581C87.6538 105.279 62.0456 124.198 33.8354 123.481C43.3266 128.864 51.9329 127.516 51.9329 127.516C63.099 128.622 76.0664 124.113 82.1129 120.721C95.0698 113.453 93.4581 87.1284 88.9495 77.2581Z" fill="#635246"/>
<path d="M51.9961 88.7191C51.9961 88.7191 48.8359 94.4391 52.8388 96.4511C56.8418 98.4526 60.318 92.1005 60.318 92.1005" stroke="black" stroke-width="0.6" stroke-linecap="round" stroke-linejoin="round"/>
<path d="M37.1431 81.8721C37.1431 81.8721 35.3312 88.1503 31.086 86.7388C26.8408 85.3272 28.8633 78.3748 28.8633 78.3748" stroke="black" stroke-width="0.6" stroke-linecap="round" stroke-linejoin="round"/>
<path d="M39.555 92.9328C39.555 92.9328 35.4468 88.1609 38.1856 86.96C40.9245 85.7591 45.2434 89.6567 45.4541 90.7101C45.6648 91.7635 39.555 92.9433 39.555 92.9433V92.9328Z" fill="#0A0703"/>
<path d="M40.0188 92.248L38.8706 94.4497" stroke="black" stroke-width="0.6" stroke-linecap="round" stroke-linejoin="round"/>
<path d="M34.0353 91.8688C34.0353 91.8688 33.9194 93.807 35.4258 94.9447C36.9321 96.0824 38.8704 94.4601 38.8704 94.4601C38.8704 94.4601 39.534 97.6941 41.6198 97.3991C43.7055 97.1042 44.1374 95.345 44.1374 95.345" stroke="black" stroke-width="0.6" stroke-linecap="round" stroke-linejoin="round"/>
<path d="M26.1559 88.1714C20.8573 82.2618 6.97344 66.8189 6.30979 66.3133L6.49941 66.071V66.0499L6.17285 66.1236L6.33086 65.7655C6.61528 65.6075 6.69955 65.5232 26.6194 87.75L26.1454 88.1714H26.1559Z" fill="#FBEBD7"/>
<path d="M24.5546 91.1841L1.79053 78.6591L2.09601 78.1008L24.8495 90.6363L24.5546 91.1841Z" fill="#FBEBD7"/>
<path d="M24.0176 94.9553L0 91.2157L0.0948063 90.5942L24.1124 94.3233L24.0176 94.9553Z" fill="#FBEBD7"/>
<path d="M86.1369 111.02C86.1369 111.02 78.9106 108.755 71.6948 106.469C61.2134 103.161 58.2112 102.213 57.3685 101.824C57.0314 101.666 57.042 101.602 57.0525 101.508L57.3685 101.234V101.55L57.5055 101.276C58.0848 101.529 76.6142 107.375 86.3266 110.419L86.1369 111.02Z" fill="#FBEBD7"/>
<path d="M75.8451 116.044L54.5664 103.825L54.8824 103.277L76.1612 115.497L75.8451 116.044Z" fill="#FBEBD7"/>
<path d="M50.0898 103.319L49.666 103.788L71.5786 123.594L72.0024 123.125L50.0898 103.319Z" fill="#FBEBD7"/>
<path d="M36.2267 187.834C43.6427 191.742 54.8614 189.814 62.7303 188.698C62.941 188.666 62.8989 188.308 62.6777 188.318C54.7771 188.824 43.906 191.3 36.3531 187.613C36.2056 187.539 36.0687 187.76 36.2162 187.844L36.2267 187.834Z" fill="#342C28"/>
<path d="M33.2873 214.232C34.583 214.19 35.8366 213.8 37.1639 213.8C38.8914 213.8 40.5348 214.316 42.2202 214.569C42.5468 214.622 42.7996 214.179 42.4625 214C39.6499 212.568 36.0999 212.842 33.2452 213.842C33.0451 213.916 33.0661 214.232 33.2979 214.222L33.2873 214.232Z" fill="#342C28"/>
<path d="M32.9502 218.54C32.9502 219.457 32.7184 220.226 32.9502 221.132C33.1398 221.88 33.7718 222.554 34.3617 223.017C35.4783 223.902 37.5114 224.187 38.628 223.175C38.8492 222.975 38.6175 222.607 38.3436 222.68C36.7951 223.102 35.4467 223.249 34.2564 221.922C33.7508 221.364 33.4558 220.7 33.4663 219.941C33.4663 219.436 33.519 218.909 33.2873 218.456C33.203 218.298 32.9607 218.372 32.9607 218.54H32.9502Z" fill="#342C28"/>
<path d="M37.5433 218.509C37.8067 220.121 37.8594 221.943 39.3973 222.954C40.5139 223.692 42.2626 224.145 43.5477 223.618C43.769 223.523 43.8322 223.176 43.5477 223.102C42.3574 222.807 41.2092 223.018 40.061 222.417C38.4493 221.564 38.6073 219.741 37.8594 218.372C37.754 218.193 37.5117 218.319 37.5433 218.509Z" fill="#342C28"/>
<path d="M58.1268 214.906C59.4752 215.149 60.7708 214.854 62.1508 215.159C63.3833 215.433 64.4999 216.086 65.764 216.191C66.1221 216.223 66.2064 215.717 65.9325 215.549C64.7422 214.822 63.2358 214.453 61.8769 214.2C60.5496 213.958 59.412 214.38 58.1268 214.58C57.9688 214.601 57.9688 214.875 58.1268 214.906Z" fill="#342C28"/>
<path d="M63.6785 223.555C62.5829 223.27 61.993 222.301 61.5295 221.332C61.1608 220.574 61.0449 219.531 60.5077 218.888C60.3392 218.688 60.0337 218.857 60.0231 219.088C59.981 220.1 60.75 221.448 61.2451 222.301C61.7718 223.207 62.5724 223.871 63.6258 223.955C63.8575 223.976 63.8997 223.608 63.6785 223.555Z" fill="#342C28"/>
<path d="M62.2351 223.776C61.3607 224.629 59.138 223.892 58.4428 223.186C57.4315 222.154 57.5685 220.637 57.0523 219.394C56.9364 219.12 56.494 219.204 56.4308 219.478C56.0516 221.185 57.0734 223.418 58.4744 224.387C59.3382 224.987 62.1508 225.261 62.5511 223.955C62.6143 223.776 62.372 223.65 62.2351 223.776Z" fill="#342C28"/>
<path d="M112.282 222.322C110.196 221.606 109.417 219.741 110.07 217.687C110.207 217.255 109.564 217.003 109.354 217.382C108.216 219.415 109.67 222.891 112.219 222.807C112.514 222.807 112.556 222.407 112.282 222.312V222.322Z" fill="#342C28"/>
<path d="M122.806 223.987C121.573 224.071 120.52 223.428 119.719 222.533C119.298 222.059 119.024 221.458 118.856 220.858C118.708 220.31 118.877 219.794 118.866 219.246C118.866 218.972 118.487 218.772 118.287 219.004C117.36 220.089 118.171 221.996 118.961 222.933C119.919 224.071 121.394 224.945 122.869 224.282C123.016 224.218 122.943 223.966 122.785 223.976L122.806 223.987Z" fill="#342C28"/>
<path d="M123.944 219.246C123.87 220.805 124.407 222.501 125.84 223.281C126.514 223.65 127.367 223.671 128.105 223.734C129.2 223.818 130.117 224.218 131.202 223.839C131.56 223.713 131.497 223.207 131.107 223.186C129.801 223.102 128.526 222.859 127.23 222.765C125.155 222.607 124.755 220.847 124.207 219.215C124.154 219.067 123.954 219.099 123.944 219.246Z" fill="#342C28"/>
<path d="M121.942 213.842C122.584 214.18 123.374 213.716 123.996 213.484C125.966 212.768 128.357 213.948 130.306 214.243C130.601 214.285 130.853 213.864 130.527 213.706C129.021 213 127.325 212.705 125.671 212.642C124.249 212.589 123.269 213.21 121.963 213.59C121.847 213.621 121.815 213.79 121.931 213.842H121.942Z" fill="#342C28"/>
<path d="M109.944 214.043C110.923 214.453 112.219 213.895 113.262 213.927C115.137 213.969 116.549 214.506 118.192 215.307C118.497 215.454 118.94 215.128 118.708 214.791C117.908 213.684 116.422 213.316 115.127 213.158C114.21 213.042 113.315 213.01 112.388 213.031C111.545 213.052 110.85 213.516 110.007 213.548C109.702 213.558 109.691 213.937 109.944 214.043Z" fill="#342C28"/>
</svg>
