<svg width="198" height="193" viewBox="0 0 198 193" fill="none" xmlns="http://www.w3.org/2000/svg">
<rect width="198" height="193" fill="#999999"/>
<g style="mix-blend-mode:luminosity">
<path d="M197.324 59.6935C195.457 72.0258 189.358 80.6474 189.358 80.6474L173.915 71.9814C173.915 71.9814 178.947 66.093 182.647 57.4603C187.213 59.3602 192.146 60.2157 197.324 59.7046V59.6935Z" fill="#635246"/>
<path d="M196.38 41.4727C198.135 48.0056 198.146 54.2162 197.313 59.7046C192.135 60.2157 187.203 59.3602 182.636 57.4603C184.647 52.7718 186.269 47.2723 186.48 41.4727C186.847 31.218 192.547 27.2405 196.391 41.4727H196.38Z" fill="#FBEBD7"/>
<path d="M132.918 179.084C132.918 179.084 136.596 168.207 136.596 164.363C136.596 160.519 134.751 155.83 132.418 149.631C131.918 148.309 131.174 146.209 130.385 143.831C137.451 150.342 145.873 155.719 155.072 159.886C154.416 168.696 151.25 182.995 142.695 187.694C138.351 189.728 135.773 187.95 135.773 187.95C135.773 187.95 132.263 189.961 130.085 187.95C130.085 187.95 125.397 187.617 126.241 183.261C127.507 176.684 132.929 179.073 132.929 179.073L132.918 179.084Z" fill="#FBEBD7"/>
<path d="M155.172 155.153C155.228 156.386 155.194 158.019 155.061 159.885C145.862 155.719 137.44 150.342 130.374 143.831C129.874 142.331 129.352 140.731 128.841 139.143C137.907 140.32 147.062 144.82 154.539 150.286C154.717 151.675 155.072 153.097 155.172 155.164V155.153Z" fill="#C06F47"/>
<path d="M165.716 126.977C164.816 129.044 163.76 130.988 162.538 132.732C154.739 143.842 154.116 146.942 154.539 150.275C147.061 144.82 137.907 140.32 128.841 139.132C127.574 135.154 126.441 131.266 126.119 129.41C137.418 123.633 153.172 126.366 165.716 126.977Z" fill="#A35538"/>
<path d="M33.6815 96.2463C27.8708 101.368 24.0934 104.934 21.3047 108.279C23.1823 101.113 26.1821 95.4908 28.8596 90.6801C31.4483 91.58 34.0592 92.3688 36.6923 93.0354C35.7369 94.2242 34.7369 95.313 33.6815 96.2463Z" fill="#C06F47"/>
<path d="M36.9816 67.793L47.9029 67.4486C45.5253 76.5701 41.9367 86.4915 36.7038 93.0243C34.0818 92.3577 31.4598 91.58 28.8711 90.669C31.182 86.5249 33.2596 82.9918 34.1373 79.6698C36.3149 71.4705 36.9816 67.793 36.9816 67.793Z" fill="#A35538"/>
<path d="M181.925 156.286C181.969 164.107 179.281 182.284 169.415 187.694C165.071 189.728 162.493 187.95 162.493 187.95C162.493 187.95 158.982 189.961 156.805 187.95C156.805 187.95 152.116 187.617 152.961 183.261C154.227 176.684 159.649 179.073 159.649 179.073C159.649 179.073 163.326 168.196 163.326 164.352C163.326 160.508 161.482 155.819 159.138 149.62C157.905 146.376 156.871 141.709 156.149 137.998C161.049 145.631 169.226 152.175 181.925 156.286Z" fill="#FBEBD7"/>
<path d="M40.992 134.732C41.9697 132.777 44.3918 137.254 47.7137 139.287C47.2915 144.409 45.9805 159.819 44.8362 167.029C43.1696 177.595 43.1696 189.628 35.8036 191.128C32.1483 191.561 30.7817 189.783 30.7817 189.783C30.7817 189.783 29.7485 190.916 27.8042 191.194C28.7041 190.361 29.5263 189.394 30.2707 188.272C40.9809 172.207 39.6366 153.464 40.9809 134.721L40.992 134.732Z" fill="#F3D7BD"/>
<path d="M25.6043 191.128C22.2602 190.461 22.4824 187.617 22.4824 187.617C22.4824 187.617 18.0049 189.294 18.0383 181.928C18.5716 176.906 26.9265 178.251 26.9265 178.251C26.9265 178.251 25.4377 168.374 23.9378 155.997C22.4268 143.609 17.5716 131.399 20.0826 114.323C20.3936 112.189 20.8158 110.178 21.3158 108.279C24.1045 104.946 27.8708 101.368 33.6926 96.2463C34.7592 95.313 35.7591 94.2242 36.7034 93.0354C47.2026 95.6907 57.9573 96.424 68.3231 95.1352C75.3115 108.112 94.3211 117.7 99.5762 125.799C102.443 130.221 103.643 136.565 104.109 141.987C99.7873 142.765 95.8321 142.898 91.8768 142.598C91.8768 142.598 89.8659 153.642 86.1884 165.53C82.5109 177.406 82.6776 181.262 80.6666 186.45C78.6557 191.639 72.9672 194.483 67.1121 191.472C67.1121 191.472 62.5903 193.316 58.7461 189.972C58.7461 189.972 55.402 190.639 55.2353 184.95C55.0687 179.262 64.6012 179.262 64.6012 179.262C64.6012 179.262 64.1013 160.519 64.9345 151.32C65.7678 142.109 65.7678 139.432 65.7678 139.432C65.7678 139.432 59.2461 139.765 47.8581 137.587C47.8581 137.587 47.8137 138.221 47.7248 139.298C44.4028 137.276 41.9808 132.788 41.0031 134.743C39.6588 153.486 41.0031 172.229 30.2928 188.294C29.5485 189.417 28.7152 190.383 27.8264 191.216C27.182 191.316 26.4487 191.316 25.6154 191.139L25.6043 191.128Z" fill="#FFFAF5"/>
<path d="M70.3671 66.7596C67.1118 74.0146 64.6676 82.3362 66.1008 89.2245C66.523 91.2688 67.3007 93.2464 68.3228 95.1463C57.957 96.435 47.2023 95.7018 36.7031 93.0464C41.936 86.5136 45.5246 76.5922 47.9022 67.4707L70.3671 66.7708V66.7596Z" fill="#F3D7BD"/>
<path d="M112.642 72.6368C117.597 73.4701 123.097 73.9812 128.863 73.8145C131.663 84.747 134.673 95.5683 140.073 105.29C152.005 126.755 176.67 122.722 196.113 112.111C195.38 119.778 193.158 127.188 189.269 132.732C178.225 148.464 181.57 148.131 181.903 155.152C181.914 155.497 181.925 155.886 181.925 156.286C169.226 152.186 161.049 145.631 156.149 137.998C155.505 134.632 155.116 132.054 155.116 132.054C155.116 132.054 154.327 131.965 152.983 131.854C147.595 131.443 133.096 130.91 122.652 135.732C115.419 139.076 109.475 141.02 104.098 141.976C103.631 136.543 102.432 130.199 99.5651 125.788C94.3099 117.7 75.3003 108.112 68.312 95.1239C85.0107 93.0463 100.687 85.7136 112.631 72.6257L112.642 72.6368Z" fill="#C06F47"/>
<path d="M70.3671 66.7596L90.5322 66.1263C90.5322 66.1263 99.6759 70.4593 112.642 72.6369C100.698 85.7248 85.0215 93.0575 68.3229 95.1351C67.3007 93.2353 66.5341 91.2688 66.1008 89.2134C64.6676 82.3251 67.1118 74.0035 70.3671 66.7485V66.7596Z" fill="#A35538"/>
<path d="M140.062 105.279C134.663 95.5573 131.663 84.747 128.852 73.8035C130.563 73.759 132.285 73.659 134.041 73.4813C142.184 72.6591 149.517 71.7592 156.15 71.3148C168.338 70.5148 178.126 71.3148 185.925 77.1588C193.736 83.0139 197.458 98.0015 196.113 112.1C176.67 122.7 151.995 126.744 140.073 105.279H140.062Z" fill="#6E5D4F"/>
<path d="M62.9796 4.77568C62.9796 4.77568 48.203 4.69791 38.8926 1.62038C29.5933 -1.44604 18.1054 5.77561 21.5051 26.6184C24.9048 47.4612 26.8047 54.1051 34.1708 58.6158C41.5368 63.1266 46.6698 43.9948 53.9136 34.0178C61.1575 24.0408 82.7447 6.77552 62.9796 4.77568Z" fill="#A35538"/>
<path d="M14.6719 24.3297C16.2607 24.363 17.4273 24.3297 18.3161 24.2075C26.871 26.1073 28.3708 21.9854 34.3037 14.0416C38.4478 8.4976 44.6029 3.59799 49.0581 0.442688C53.8799 -0.379468 59.3462 -0.0683821 66.1123 1.47594C63.4347 6.24223 58.4129 13.7194 50.8246 19.3412C38.7811 28.2627 32.5261 26.7739 35.4258 35.8843C38.3256 44.9947 48.8137 53.7051 42.903 62.8488C39.8699 67.5373 36.5258 71.6259 33.826 74.6034C27.8042 72.1592 21.9936 69.1039 15.7496 66.1708C-0.493514 58.5714 0.261982 48.6944 0.0175568 41.3394C-0.237978 33.9845 2.18405 24.0408 14.6831 24.3297H14.6719Z" fill="#FFFAF5"/>
<path d="M34.304 14.0415C28.3823 21.9853 26.8824 26.0961 18.3164 24.2074C23.016 23.563 19.583 20.3966 29.1933 11.6306C35.915 5.50889 41.759 1.69808 49.0584 0.453735C44.6032 3.59793 38.4481 8.49754 34.304 14.0526V14.0415Z" fill="#C06F47"/>
<path d="M35.4149 35.8953C32.5152 26.7849 38.7591 28.2737 50.8137 19.3522C58.402 13.7304 63.4238 6.25322 66.1014 1.48694C66.4902 1.57582 66.8569 1.64248 67.2568 1.74247C85.0221 6.05324 90.8216 21.8853 91.3327 21.1187L94.9213 64.4152C94.9213 64.4152 92.3326 74.1034 67.1791 78.503C53.6913 80.8695 43.481 78.5252 33.8262 74.6144C36.526 71.6369 39.8701 67.5483 42.9032 62.8598C48.8139 53.7161 38.3258 45.0057 35.426 35.8953H35.4149Z" fill="#C06F47"/>
<path d="M70.4343 43.4948C71.1898 31.9957 66.5346 8.4754 77.5115 10.5086C79.1225 10.8085 81.0668 11.6418 83.4111 13.1639C83.4111 13.1639 96.1434 23.1853 106.298 27.0073C116.453 30.8292 121.186 44.6392 103.476 59.5158C91.6993 69.415 84.9554 74.5701 78.9447 76.5366C75.9228 77.5254 73.0897 77.7254 69.901 77.281C60.3796 75.97 69.5566 56.6715 70.4232 43.4948H70.4343Z" fill="#A35538"/>
<path d="M74.7891 44.8392C75.5113 33.3401 71.0339 9.81976 81.5997 11.8529C83.1551 12.1529 85.0216 12.9862 87.277 14.5083C87.277 14.5083 99.5316 24.5297 109.309 28.3516C119.086 32.1735 123.63 45.9835 106.598 60.8601C95.2541 70.7705 88.7658 75.9145 82.9885 77.881C80.0776 78.8698 77.3556 79.0698 74.2892 78.6254C65.1232 77.3144 73.967 58.027 74.7891 44.8392Z" fill="#C06F47"/>
<path d="M15.6608 27.4182C15.6608 27.4182 25.5045 29.9402 22.4492 32.5622C19.3827 35.1842 17.6384 36.4952 14.3498 35.8397C11.0612 35.1842 5.81717 24.3518 15.6608 27.4182Z" fill="black"/>
<path d="M15.1165 33.5511C15.1165 33.5511 13.5833 36.7509 13.4722 39.4729" stroke="black" stroke-width="0.6" stroke-linecap="round" stroke-linejoin="round"/>
<path d="M25.3489 41.0172C25.3489 41.0172 22.3936 44.4058 19.4383 43.417C16.4829 42.4282 13.4276 39.3729 13.4276 39.3729C13.4276 39.3729 10.139 41.2283 7.40588 40.3506C4.67277 39.4728 4.89497 35.3287 4.89497 35.3287" stroke="black" stroke-width="0.6" stroke-linecap="round" stroke-linejoin="round"/>
<path d="M11.0168 24.1631C17.5163 22.9965 24.6602 25.5519 30.4153 28.285C30.893 28.5072 30.4819 29.2182 30.0042 28.996C24.4935 26.374 17.4941 23.8298 11.239 24.9519C10.728 25.0408 10.5058 24.252 11.0168 24.1631Z" fill="#6E5D4F"/>
<path d="M43.4918 34.8066C42.4807 36.4953 42.7918 38.5396 44.1806 39.3617C45.5694 40.1839 47.5137 39.484 48.5136 37.7841C49.5135 36.0842 49.2024 34.0511 47.8247 33.2178C46.436 32.3956 44.4917 33.0956 43.4918 34.7954V34.8066Z" fill="black"/>
<g opacity="0.2">
<path d="M74.7449 138.754C61.4904 141.942 48.6359 138.287 36.2035 133.91C35.7147 133.732 35.9035 132.999 36.4146 133.121C49.1358 136.343 61.1571 141.198 74.6227 138.309C74.9115 138.254 75.0337 138.676 74.7449 138.754Z" fill="#6E5D4F"/>
</g>
<path opacity="0.2" d="M69.1005 187.728C68.945 191.416 65.312 192.694 62.1678 191.716C60.4346 191.172 58.6458 190.128 57.6459 188.583C56.6682 187.072 57.6681 184.561 58.2903 183.128C58.5236 182.584 59.3791 182.973 59.2236 183.517C58.9236 184.584 58.5569 185.606 58.4236 186.728C58.2014 188.583 60.0902 189.605 61.4789 190.339C64.4009 191.894 67.8562 191.183 68.6672 187.672C68.7228 187.439 69.1005 187.483 69.0894 187.728H69.1005Z" fill="#6E5D4F"/>
<path opacity="0.2" d="M59.0798 189.716C57.58 190.361 56.2467 189.172 55.5135 187.939C54.7024 186.561 54.6024 184.261 55.4579 182.884C55.6134 182.639 56.0468 182.717 56.0245 183.039C55.9468 184.139 55.6579 185.128 55.8245 186.239C56.0579 187.828 57.2244 189.361 58.9576 189.261C59.1798 189.261 59.302 189.616 59.0798 189.716Z" fill="#6E5D4F"/>
<path opacity="0.2" d="M72.6338 181.539C68.4674 180.273 63.7012 179.462 59.4793 180.884C59.1571 180.995 58.9571 180.495 59.246 180.339C63.1012 178.351 68.9007 179.617 72.7116 181.217C72.9115 181.295 72.8449 181.606 72.6227 181.539H72.6338Z" fill="#6E5D4F"/>
<path opacity="0.2" d="M32.3484 186.617C32.7817 190.572 28.7265 192.683 25.4378 191.216C22.3492 189.839 21.2493 184.872 23.7935 182.472C24.2046 182.084 24.8268 182.572 24.5601 183.061C23.4158 185.217 22.9714 187.672 24.8712 189.561C27.4377 192.127 31.9151 190.239 31.7707 186.605C31.7596 186.239 32.2929 186.25 32.3373 186.605L32.3484 186.617Z" fill="#6E5D4F"/>
<path opacity="0.2" d="M32.6815 179.251C30.7372 178.895 28.8151 178.429 26.8597 178.206C24.5266 177.94 22.6823 178.562 20.5602 179.428C20.2713 179.551 20.0491 179.117 20.2602 178.917C23.5822 175.729 29.0262 177.74 32.8148 178.795C33.1148 178.884 32.9925 179.306 32.6926 179.251H32.6815Z" fill="#6E5D4F"/>
<g opacity="0.2">
<path d="M42.4034 185.039C41.3146 187.239 40.3147 189.217 38.0927 190.428C36.3706 191.361 33.9152 191.05 32.0931 190.616C31.7154 190.528 31.8154 189.972 32.182 189.961C33.9152 189.905 35.4929 190.328 37.215 189.872C39.7148 189.205 40.6702 186.706 42.0479 184.839C42.2034 184.628 42.5145 184.806 42.3923 185.039H42.4034Z" fill="#6E5D4F"/>
</g>
<path opacity="0.2" d="M23.0938 188.15C21.6828 188.516 19.9941 188.261 19.0941 186.994C17.8609 185.272 17.9831 183.172 18.4164 181.184C18.4831 180.862 18.9386 180.962 18.9608 181.261C19.0719 182.895 18.472 184.361 19.183 185.95C19.9496 187.672 21.4162 187.739 23.0383 187.75C23.2716 187.75 23.316 188.083 23.0938 188.15Z" fill="#6E5D4F"/>
<path opacity="0.2" d="M67.2785 191.116C69.3117 192.816 74.0224 191.872 76.1222 190.761C79.2775 189.094 79.9664 185.272 80.5441 182.117C80.6552 181.528 81.5774 181.673 81.5663 182.25C81.5107 186.228 79.6997 190.228 76.0556 192.061C73.7113 193.238 68.8228 193.583 66.9119 191.461C66.6897 191.216 67.023 190.894 67.2674 191.105L67.2785 191.116Z" fill="#6E5D4F"/>
<path opacity="0.2" d="M163.716 184.328C163.482 185.539 163.338 187.006 162.527 187.994C161.671 189.05 160.427 189.172 159.138 189.061C157.85 188.95 156.227 188.017 155.761 186.739C155.094 184.883 156.35 183.372 157.194 181.806C157.427 181.373 158.161 181.673 157.994 182.15C157.638 183.206 156.927 184.072 156.583 185.128C155.939 187.106 158.505 188.161 159.96 188.239C162.294 188.361 162.627 185.906 163.26 184.206C163.36 183.928 163.76 184.039 163.693 184.328H163.716Z" fill="#6E5D4F"/>
<path opacity="0.2" d="M156.471 187.783C155.272 187.65 154.149 187.283 153.227 186.495C152.327 185.728 152.027 184.328 152.783 183.373C152.961 183.139 153.372 183.328 153.349 183.606C153.272 184.606 153.172 185.261 153.961 186.006C154.638 186.65 155.672 186.994 156.549 187.228C156.849 187.306 156.794 187.817 156.471 187.783Z" fill="#6E5D4F"/>
<path opacity="0.2" d="M162.827 187.772C164.293 188.883 167.726 188.128 169.315 187.694C172.359 186.861 174.326 183.295 175.859 180.839C176.092 180.462 176.781 180.706 176.603 181.15C175.37 184.284 172.837 187.494 169.582 188.661C167.826 189.294 164.004 189.55 162.56 188.105C162.393 187.939 162.616 187.628 162.816 187.772H162.827Z" fill="#6E5D4F"/>
<path opacity="0.2" d="M148.383 182.995C146.372 185.595 143.684 187.972 140.406 188.65C138.94 188.95 135.706 189.594 135.251 187.517C135.14 186.995 135.851 186.65 136.129 187.15C136.962 188.639 139.873 187.75 141.162 187.472C143.75 186.917 146.261 184.45 148.039 182.639C148.272 182.406 148.572 182.739 148.383 182.984V182.995Z" fill="#6E5D4F"/>
<path opacity="0.2" d="M137.362 185.217C136.873 186.561 136.596 187.717 135.373 188.55C134.24 189.305 132.696 189.405 131.418 189.094C128.574 188.383 127.696 185.539 129.852 183.439C130.118 183.172 130.685 183.439 130.529 183.828C130.152 184.772 129.329 185.839 129.863 186.894C130.296 187.761 131.785 188.183 132.674 188.228C133.585 188.272 134.496 187.994 135.262 187.539C136.096 187.05 136.407 185.739 137.018 185.006C137.151 184.85 137.429 185.006 137.362 185.206V185.217Z" fill="#6E5D4F"/>
<path d="M160.371 150.131C152.994 136.187 150.606 119.855 154.094 104.434C154.15 104.201 154.472 104.29 154.45 104.512C153.061 120.755 154.039 134.888 160.994 149.831C161.16 150.186 160.56 150.475 160.371 150.131Z" fill="#635246"/>
<path d="M90.1546 149.398C91.5767 141.887 93.4099 134.465 94.6542 126.922C96.1763 117.689 96.754 109.734 95.743 100.424C95.6986 100.079 96.2985 100.002 96.3541 100.346C99.0205 117.267 94.2876 133.066 90.5767 149.52C90.5101 149.798 90.099 149.675 90.1546 149.398Z" fill="#635246"/>
</g>
</svg>
